<svg id="svg" version="1.1" xmlns="http://www.w3.org/2000/svg"
    xmlns:xlink="http://www.w3.org/1999/xlink" width="400" height="400" viewBox="0, 0, 400,400">
    <g id="svgg">
        <path id="path0"
            d="M184.275 52.564 C 99.504 61.381,40.755 139.703,56.103 223.438 C 67.369 284.904,119.028 333.595,181.445 341.580 C 277.601 353.880,359.341 271.023,345.302 175.482 C 333.991 98.501,263.075 44.369,184.275 52.564 M270.339 120.546 C 281.519 123.835,279.167 144.610,265.700 161.523 C 264.502 163.027,258.176 169.649,251.641 176.238 L 239.760 188.219 242.165 201.238 C 243.487 208.399,246.077 222.256,247.920 232.031 C 252.406 255.817,252.421 255.559,246.199 260.560 C 239.736 265.754,234.389 266.642,229.763 263.291 C 228.186 262.149,226.980 260.466,210.799 236.839 L 202.722 225.045 194.720 231.483 C 190.320 235.024,186.719 238.150,186.719 238.431 C 186.719 238.711,187.250 242.418,187.899 246.669 C 189.525 257.323,189.318 258.095,183.246 264.005 C 178.900 268.234,177.275 269.199,174.464 269.222 C 169.505 269.261,168.050 267.885,159.566 255.142 L 152.372 244.336 144.066 239.063 C 130.332 230.344,129.269 229.280,129.245 224.233 C 129.230 221.118,129.882 220.013,134.512 215.304 C 140.837 208.871,141.261 208.763,153.081 210.568 C 160.116 211.642,161.472 211.756,161.735 211.292 C 161.906 210.990,164.582 207.492,167.681 203.520 L 173.316 196.299 169.276 193.560 C 167.053 192.053,159.481 186.953,152.449 182.227 C 132.725 168.970,131.790 168.179,130.837 163.918 C 129.901 159.736,131.406 156.249,136.691 150.356 C 141.729 144.738,139.865 144.649,178.312 152.342 L 209.539 158.590 223.031 145.202 C 230.452 137.839,237.624 131.028,238.969 130.067 C 250.150 122.081,262.655 118.286,270.339 120.546 M257.617 133.226 C 249.449 136.006,245.900 138.799,228.294 156.306 C 213.993 170.526,213.795 170.703,212.220 170.703 C 211.057 170.703,152.810 159.157,146.224 157.621 C 145.270 157.398,142.172 161.104,142.819 161.695 C 143.341 162.173,151.592 167.820,169.570 180.006 C 187.544 192.189,187.123 191.852,187.395 194.263 C 187.652 196.538,188.030 195.959,177.127 209.945 C 165.057 225.427,167.338 224.264,153.349 222.070 L 144.630 220.703 143.018 222.177 C 140.924 224.090,140.506 223.562,147.754 228.157 C 151.245 230.370,155.652 233.215,157.548 234.479 L 160.993 236.777 167.669 246.934 L 174.344 257.091 176.024 255.401 L 177.704 253.711 176.360 245.508 C 174.802 236.000,174.735 234.619,175.751 232.952 C 177.358 230.318,202.291 210.937,204.071 210.940 C 206.803 210.943,207.326 211.582,221.308 232.031 C 228.727 242.881,235.116 252.197,235.506 252.733 C 236.275 253.790,236.793 253.681,239.020 251.990 L 239.953 251.281 239.099 246.637 C 238.630 244.082,235.863 229.248,232.952 213.672 C 229.290 194.079,227.761 185.090,227.990 184.502 C 228.172 184.035,234.344 177.531,241.706 170.049 C 260.793 150.652,266.037 142.786,265.548 134.285 L 265.430 132.227 263.281 132.128 C 261.714 132.056,260.182 132.354,257.617 133.226 "
            stroke="none" fill="#3bae5b" fill-rule="evenodd"></path>
        <path id="path1"
            d="M0.000 200.000 L 0.000 400.000 200.000 400.000 L 400.000 400.000 400.000 200.000 L 400.000 0.000 200.000 0.000 L 0.000 0.000 0.000 200.000 M210.474 51.974 C 290.924 57.738,351.204 125.100,346.880 204.403 C 341.161 309.269,228.984 374.522,135.154 327.563 C 41.277 280.582,24.906 155.417,103.711 87.159 C 126.350 67.550,155.955 54.841,184.766 52.365 C 187.451 52.134,190.264 51.887,191.016 51.816 C 194.292 51.508,205.205 51.596,210.474 51.974 M263.477 120.162 C 248.616 122.128,241.565 126.600,221.968 146.487 L 209.757 158.879 178.023 152.475 C 139.081 144.616,141.489 144.661,135.719 151.692 C 131.216 157.180,130.083 160.479,131.258 164.676 C 132.292 168.370,133.299 169.160,159.102 186.505 C 167.009 191.819,173.425 196.290,173.360 196.439 C 172.476 198.469,161.089 212.069,160.398 211.919 C 157.332 211.255,146.148 209.767,144.272 209.774 C 140.861 209.787,139.144 210.773,134.596 215.331 C 124.794 225.153,127.229 229.244,151.367 243.510 C 152.138 243.965,154.812 247.630,159.180 254.219 C 168.007 267.534,168.923 268.483,173.462 269.021 C 178.853 269.660,188.672 260.406,188.672 254.687 C 188.672 253.173,187.174 242.387,186.496 239.021 C 186.299 238.042,189.948 234.859,202.263 225.269 C 202.631 224.983,202.951 225.131,203.435 225.808 C 203.802 226.321,209.158 234.127,215.338 243.155 C 230.402 265.162,230.287 265.039,235.750 265.039 C 242.245 265.039,251.172 257.729,251.172 252.411 C 251.172 251.464,249.331 240.823,247.081 228.763 C 244.831 216.703,242.212 202.617,241.260 197.461 L 239.529 188.086 252.288 175.195 C 270.257 157.040,274.601 150.421,276.791 137.857 C 278.894 125.790,273.647 118.817,263.477 120.162 M265.147 132.249 C 267.990 134.240,263.348 146.390,256.499 154.883 C 255.633 155.957,248.894 162.911,241.525 170.336 C 228.695 183.261,228.125 183.898,228.125 185.302 C 228.125 186.109,229.698 195.151,231.620 205.396 C 233.542 215.641,236.181 229.824,237.485 236.914 C 238.788 244.004,239.939 250.183,240.042 250.644 C 240.254 251.593,236.567 254.326,235.962 253.669 C 235.786 253.477,229.342 244.110,221.642 232.853 C 205.613 209.418,205.251 209.045,201.413 211.974 C 196.874 215.437,176.999 231.539,176.469 232.182 C 174.915 234.070,174.913 235.221,176.451 244.879 L 177.906 254.016 176.208 255.524 C 175.273 256.353,174.400 257.028,174.266 257.023 C 174.133 257.019,171.299 252.845,167.969 247.748 C 160.238 235.917,161.288 236.972,150.340 230.046 L 140.956 224.110 142.753 222.286 L 144.550 220.462 153.818 221.950 C 163.532 223.510,165.276 223.546,166.961 222.221 C 168.308 221.161,186.607 197.611,187.109 196.291 C 188.401 192.891,188.775 193.212,163.672 176.183 C 152.178 168.387,142.625 161.873,142.443 161.708 C 141.979 161.288,144.948 157.422,145.734 157.422 C 146.089 157.422,157.522 159.691,171.139 162.465 C 211.208 170.627,212.217 170.819,213.170 170.452 C 213.648 170.268,220.619 163.638,228.661 155.718 C 247.697 136.973,252.444 133.509,261.063 132.070 C 264.023 131.575,264.197 131.583,265.147 132.249 "
            stroke="none" fill="#f4fbfb" fill-rule="evenodd"></path>
        <path id="path2" d="" stroke="none" fill="#a0d3b1" fill-rule="evenodd"></path>
        <path id="path3"
            d="M196.973 51.852 C 198.423 51.927,200.796 51.927,202.246 51.852 C 203.696 51.777,202.510 51.716,199.609 51.716 C 196.709 51.716,195.522 51.777,196.973 51.852 M250.377 161.230 L 248.242 163.477 250.488 161.341 C 252.575 159.358,252.913 158.984,252.623 158.984 C 252.562 158.984,251.552 159.995,250.377 161.230 M250.781 176.758 C 244.661 182.881,239.741 187.891,239.849 187.891 C 239.956 187.891,245.052 182.881,251.172 176.758 C 257.292 170.635,262.212 165.625,262.104 165.625 C 261.997 165.625,256.901 170.635,250.781 176.758 M242.749 168.848 L 241.602 170.117 242.871 168.970 C 243.569 168.339,244.141 167.768,244.141 167.700 C 244.141 167.399,243.818 167.664,242.749 168.848 M53.656 196.875 C 53.656 198.916,53.722 199.751,53.803 198.730 C 53.883 197.710,53.883 196.040,53.803 195.020 C 53.722 193.999,53.656 194.834,53.656 196.875 M188.763 254.297 C 188.763 255.049,188.843 255.356,188.941 254.980 C 189.039 254.604,189.039 253.989,188.941 253.613 C 188.843 253.237,188.763 253.545,188.763 254.297 M183.984 263.086 C 183.036 264.053,182.347 264.844,182.455 264.844 C 182.562 264.844,183.426 264.053,184.375 263.086 C 185.324 262.119,186.012 261.328,185.905 261.328 C 185.797 261.328,184.933 262.119,183.984 263.086 M203.809 342.854 C 204.292 342.947,205.083 342.947,205.566 342.854 C 206.050 342.761,205.654 342.685,204.688 342.685 C 203.721 342.685,203.325 342.761,203.809 342.854 "
            stroke="none" fill="#84c594" fill-rule="evenodd"></path>
        <path id="path4"
            d="M304.688 94.727 C 306.072 96.123,307.292 97.266,307.399 97.266 C 307.507 97.266,306.462 96.123,305.078 94.727 C 303.694 93.330,302.474 92.188,302.366 92.188 C 302.259 92.188,303.303 93.330,304.688 94.727 M218.555 149.609 C 215.983 152.188,213.967 154.297,214.075 154.297 C 214.182 154.297,216.374 152.188,218.945 149.609 C 221.517 147.031,223.533 144.922,223.425 144.922 C 223.318 144.922,221.126 147.031,218.555 149.609 M222.652 161.621 L 215.430 168.945 222.754 161.723 C 226.782 157.750,230.078 154.454,230.078 154.398 C 230.078 154.120,229.363 154.816,222.652 161.621 M53.606 190.234 C 53.606 190.986,53.687 191.294,53.785 190.918 C 53.883 190.542,53.883 189.927,53.785 189.551 C 53.687 189.175,53.606 189.482,53.606 190.234 M347.014 197.070 C 347.012 199.004,347.079 199.844,347.160 198.938 C 347.242 198.031,347.243 196.449,347.163 195.422 C 347.082 194.395,347.015 195.137,347.014 197.070 M303.516 300.195 C 301.915 301.807,300.693 303.125,300.801 303.125 C 300.908 303.125,302.306 301.807,303.906 300.195 C 305.507 298.584,306.728 297.266,306.621 297.266 C 306.514 297.266,305.116 298.584,303.516 300.195 "
            stroke="none" fill="#bedcc8" fill-rule="evenodd"></path>
    </g>
</svg>